<?xml version="1.0" encoding="UTF-8" standalone="no"?>
<!-- Uploaded to: SVG Repo, www.svgrepo.com, Generator: SVG Repo Mixer Tools -->

<svg
   width="800px"
   height="800px"
   viewBox="0 0 1024 1024"
   class="icon"
   version="1.1"
   id="svg3"
   sodipodi:docname="collapse-texture.svg"
   inkscape:version="1.3 (0e150ed6c4, 2023-07-21)"
   xmlns:inkscape="http://www.inkscape.org/namespaces/inkscape"
   xmlns:sodipodi="http://sodipodi.sourceforge.net/DTD/sodipodi-0.dtd"
   xmlns="http://www.w3.org/2000/svg"
   xmlns:svg="http://www.w3.org/2000/svg">
  <defs
     id="defs3" />
  <sodipodi:namedview
     id="namedview3"
     pagecolor="#ffffff"
     bordercolor="#000000"
     borderopacity="0.25"
     inkscape:showpageshadow="2"
     inkscape:pageopacity="0.0"
     inkscape:pagecheckerboard="0"
     inkscape:deskcolor="#d1d1d1"
     inkscape:zoom="0.763125"
     inkscape:cx="180.18018"
     inkscape:cy="379.36118"
     inkscape:window-width="2560"
     inkscape:window-height="1417"
     inkscape:window-x="-8"
     inkscape:window-y="-8"
     inkscape:window-maximized="1"
     inkscape:current-layer="svg3" />
  <path
     d="m 663.6,85.2 c 23.6,0 42.7,19.1 42.7,42.7 v 149.7 c 0,23.3 19,42.3 42.3,42.3 h 149.7 c 23.6,0 42.7,19.1 42.7,42.7 0,23.6 -19.1,42.7 -42.7,42.7 H 748.6 C 678.2,405.3 621,348.1 621,277.7 V 128 c 0,-23.7 19.1,-42.8 42.6,-42.8 z"
     fill="#5F6379"
     id="path2"
     style="fill:#3688ff;fill-opacity:1" />
  <path
     d="m 365.84895,85.364783 c -23.6,0 -42.7,19.099997 -42.7,42.699997 v 149.7 c 0,23.3 -19,42.3 -42.3,42.3 h -149.7 c -23.6,0 -42.700005,19.1 -42.700005,42.7 0,23.6 19.100005,42.7 42.700005,42.7 h 149.7 c 70.4,0 127.6,-57.2 127.6,-127.6 v -149.7 c 0,-23.7 -19.1,-42.799997 -42.6,-42.799997 z"
     fill="#5f6379"
     id="path2-6"
     style="fill:#3688ff;fill-opacity:1" />
  <path
     d="m 663.10758,939.16085 c 23.60001,0 42.70001,-19.1 42.70001,-42.7 v -149.7 c 0,-23.3 19,-42.3 42.29999,-42.3 h 149.7 c 23.6,0 42.7,-19.1 42.7,-42.7 0,-23.6 -19.1,-42.7 -42.7,-42.7 h -149.7 c -70.4,0 -127.6,57.2 -127.6,127.6 v 149.7 c 0,23.7 19.1,42.8 42.6,42.8 z"
     fill="#5f6379"
     id="path2-2"
     style="fill:#3688ff;fill-opacity:1" />
  <path
     d="m 365.35653,938.99607 c -23.6,0 -42.7,-19.1 -42.7,-42.7 v -149.7 c 0,-23.3 -19,-42.3 -42.3,-42.3 h -149.7 c -23.6,0 -42.700005,-19.1 -42.700005,-42.7 0,-23.6 19.100005,-42.7 42.700005,-42.7 h 149.7 c 70.39999,0 127.59999,57.2 127.59999,127.6 v 149.7 c 0,23.7 -19.09999,42.8 -42.59999,42.8 z"
     fill="#5f6379"
     id="path2-6-7"
     style="fill:#3688ff;fill-opacity:1" />
</svg>
