<?xml version="1.0" encoding="UTF-8" standalone="no"?>
<!-- Uploaded to: SVG Repo, www.svgrepo.com, Generator: SVG Repo Mixer Tools -->

<svg
   width="800px"
   height="800px"
   viewBox="0 0 1024 1024"
   class="icon"
   version="1.1"
   id="svg3"
   sodipodi:docname="expand-texture.svg"
   inkscape:version="1.3 (0e150ed6c4, 2023-07-21)"
   xmlns:inkscape="http://www.inkscape.org/namespaces/inkscape"
   xmlns:sodipodi="http://sodipodi.sourceforge.net/DTD/sodipodi-0.dtd"
   xmlns="http://www.w3.org/2000/svg"
   xmlns:svg="http://www.w3.org/2000/svg">
  <defs
     id="defs3" />
  <sodipodi:namedview
     id="namedview3"
     pagecolor="#ffffff"
     bordercolor="#000000"
     borderopacity="0.25"
     inkscape:showpageshadow="2"
     inkscape:pageopacity="0.0"
     inkscape:pagecheckerboard="0"
     inkscape:deskcolor="#d1d1d1"
     inkscape:zoom="0.763125"
     inkscape:cx="180.18018"
     inkscape:cy="379.36118"
     inkscape:window-width="2560"
     inkscape:window-height="1417"
     inkscape:window-x="-8"
     inkscape:window-y="-8"
     inkscape:window-maximized="1"
     inkscape:current-layer="svg3" />
  <path
     d="M898.4 405.3c-23.6 0-42.7-19.1-42.7-42.7V212.9c0-23.3-19-42.3-42.3-42.3H663.7c-23.6 0-42.7-19.1-42.7-42.7s19.1-42.7 42.7-42.7h149.7c70.4 0 127.6 57.2 127.6 127.6v149.7c0 23.7-19.1 42.8-42.6 42.8z"
     fill="#5F6379"
     id="path2"
     style="fill:#3688ff;fill-opacity:1" />
  <path
     d="m 131.04895,405.46478 c 23.6,0 42.7,-19.1 42.7,-42.7 v -149.7 c 0,-23.3 19,-42.3 42.3,-42.3 h 149.7 c 23.6,0 42.7,-19.1 42.7,-42.7 0,-23.6 -19.1,-42.699997 -42.7,-42.699997 h -149.7 c -70.4,0 -127.600005,57.199997 -127.600005,127.599997 v 149.7 c 0,23.7 19.100005,42.8 42.600005,42.8 z"
     fill="#5f6379"
     id="path2-6"
     style="fill:#3688ff;fill-opacity:1" />
  <path
     d="m 897.90758,619.06085 c -23.60001,0 -42.70001,19.1 -42.70001,42.7 v 149.7 c 0,23.3 -19,42.3 -42.29999,42.3 h -149.7 c -23.6,0 -42.7,19.1 -42.7,42.7 0,23.6 19.1,42.7 42.7,42.7 h 149.7 c 70.4,0 127.6,-57.2 127.6,-127.6 v -149.7 c 0,-23.7 -19.1,-42.8 -42.6,-42.8 z"
     fill="#5f6379"
     id="path2-2"
     style="fill:#3688ff;fill-opacity:1" />
  <path
     d="m 130.55652,618.89607 c 23.6,0 42.7,19.1 42.7,42.7 v 149.7 c 0,23.3 19,42.3 42.3,42.3 h 149.7 c 23.6,0 42.7,19.1 42.7,42.7 0,23.6 -19.1,42.7 -42.7,42.7 h -149.7 c -70.4,0 -127.599995,-57.2 -127.599995,-127.6 v -149.7 c 0,-23.7 19.099995,-42.8 42.599995,-42.8 z"
     fill="#5f6379"
     id="path2-6-7"
     style="fill:#3688ff;fill-opacity:1" />
</svg>
