<?xml version="1.0" encoding="utf-8"?>
<svg xmlns="http://www.w3.org/2000/svg" xmlns:xlink="http://www.w3.org/1999/xlink" style="margin: auto; background: rgba(255, 255, 255, 0); display: block; shape-rendering: auto;" width="200px" height="200px" viewBox="0 0 100 100" preserveAspectRatio="xMidYMid">
<g transform="rotate(0 50 50)">
  <rect x="44" y="26" rx="6" ry="6" width="12" height="12" fill="#71b7fe">
    <animate attributeName="opacity" values="1;0" keyTimes="0;1" dur="1.8867924528301885s" begin="-1.6771488469601676s" repeatCount="indefinite"></animate>
  </rect>
</g><g transform="rotate(40 50 50)">
  <rect x="44" y="26" rx="6" ry="6" width="12" height="12" fill="#71b7fe">
    <animate attributeName="opacity" values="1;0" keyTimes="0;1" dur="1.8867924528301885s" begin="-1.4675052410901466s" repeatCount="indefinite"></animate>
  </rect>
</g><g transform="rotate(80 50 50)">
  <rect x="44" y="26" rx="6" ry="6" width="12" height="12" fill="#71b7fe">
    <animate attributeName="opacity" values="1;0" keyTimes="0;1" dur="1.8867924528301885s" begin="-1.2578616352201257s" repeatCount="indefinite"></animate>
  </rect>
</g><g transform="rotate(120 50 50)">
  <rect x="44" y="26" rx="6" ry="6" width="12" height="12" fill="#71b7fe">
    <animate attributeName="opacity" values="1;0" keyTimes="0;1" dur="1.8867924528301885s" begin="-1.0482180293501047s" repeatCount="indefinite"></animate>
  </rect>
</g><g transform="rotate(160 50 50)">
  <rect x="44" y="26" rx="6" ry="6" width="12" height="12" fill="#71b7fe">
    <animate attributeName="opacity" values="1;0" keyTimes="0;1" dur="1.8867924528301885s" begin="-0.8385744234800838s" repeatCount="indefinite"></animate>
  </rect>
</g><g transform="rotate(200 50 50)">
  <rect x="44" y="26" rx="6" ry="6" width="12" height="12" fill="#71b7fe">
    <animate attributeName="opacity" values="1;0" keyTimes="0;1" dur="1.8867924528301885s" begin="-0.6289308176100629s" repeatCount="indefinite"></animate>
  </rect>
</g><g transform="rotate(240 50 50)">
  <rect x="44" y="26" rx="6" ry="6" width="12" height="12" fill="#71b7fe">
    <animate attributeName="opacity" values="1;0" keyTimes="0;1" dur="1.8867924528301885s" begin="-0.4192872117400419s" repeatCount="indefinite"></animate>
  </rect>
</g><g transform="rotate(280 50 50)">
  <rect x="44" y="26" rx="6" ry="6" width="12" height="12" fill="#71b7fe">
    <animate attributeName="opacity" values="1;0" keyTimes="0;1" dur="1.8867924528301885s" begin="-0.20964360587002095s" repeatCount="indefinite"></animate>
  </rect>
</g><g transform="rotate(320 50 50)">
  <rect x="44" y="26" rx="6" ry="6" width="12" height="12" fill="#71b7fe">
    <animate attributeName="opacity" values="1;0" keyTimes="0;1" dur="1.8867924528301885s" begin="0s" repeatCount="indefinite"></animate>
  </rect>
</g>
<!-- [ldio] generated by https://loading.io/ --></svg>