<?xml version="1.0" encoding="UTF-8" standalone="no"?>
<!-- Uploaded to: SVG Repo, www.svgrepo.com, Generator: SVG Repo Mixer Tools -->

<svg
   width="800px"
   height="800px"
   viewBox="0 0 1024 1024"
   class="icon"
   version="1.1"
   id="svg3"
   sodipodi:docname="restore-texture.svg"
   inkscape:version="1.3 (0e150ed6c4, 2023-07-21)"
   xmlns:inkscape="http://www.inkscape.org/namespaces/inkscape"
   xmlns:sodipodi="http://sodipodi.sourceforge.net/DTD/sodipodi-0.dtd"
   xmlns="http://www.w3.org/2000/svg"
   xmlns:svg="http://www.w3.org/2000/svg">
  <defs
     id="defs3" />
  <sodipodi:namedview
     id="namedview3"
     pagecolor="#ffffff"
     bordercolor="#000000"
     borderopacity="0.25"
     inkscape:showpageshadow="2"
     inkscape:pageopacity="0.0"
     inkscape:pagecheckerboard="0"
     inkscape:deskcolor="#d1d1d1"
     inkscape:zoom="1.52625"
     inkscape:cx="400"
     inkscape:cy="190.33579"
     inkscape:window-width="2560"
     inkscape:window-height="1417"
     inkscape:window-x="-8"
     inkscape:window-y="-8"
     inkscape:window-maximized="1"
     inkscape:current-layer="svg3" />
  <path
     d="M512 1024C229.7 1024 0 794.3 0 512S229.7 0 512 0s512 229.7 512 512-229.7 512-512 512z m0-938.7C276.7 85.3 85.3 276.7 85.3 512S276.7 938.7 512 938.7 938.7 747.3 938.7 512 747.3 85.3 512 85.3z"
     fill="#3688FF"
     id="path1"
     style="stroke-width:0.99968;stroke-dasharray:none" />
  <path
     d="m 515.84,798.75459 c -160.22432,0 -290.59459,-130.37027 -290.59459,-290.59459 0,-160.22432 130.37027,-290.59459 290.59459,-290.59459 160.22432,0 290.59459,130.37027 290.59459,290.59459 0,160.22432 -130.37027,290.59459 -290.59459,290.59459 z m 0,-532.77567 c -133.54865,0 -242.18108,108.63243 -242.18108,242.18108 0,133.54865 108.63243,242.18108 242.18108,242.18108 133.54865,0 242.18108,-108.63243 242.18108,-242.18108 0,-133.54865 -108.63243,-242.18108 -242.18108,-242.18108 z"
     fill="#3688ff"
     id="path1-8"
     style="stroke-width:0.567386;stroke-dasharray:none;fill:#5f6379;fill-opacity:1"
     sodipodi:nodetypes="ssssssssss" />
</svg>
