<?xml version="1.0" encoding="UTF-8" standalone="no"?>
<svg
   version="1.1"
   width="256"
   height="256"
   viewBox="0 0 256 256"
   xml:space="preserve"
   id="svg1"
   sodipodi:docname="settings-texture.svg"
   inkscape:version="1.3 (0e150ed6c4, 2023-07-21)"
   xmlns:inkscape="http://www.inkscape.org/namespaces/inkscape"
   xmlns:sodipodi="http://sodipodi.sourceforge.net/DTD/sodipodi-0.dtd"
   xmlns="http://www.w3.org/2000/svg"
   xmlns:svg="http://www.w3.org/2000/svg"><sodipodi:namedview
   id="namedview1"
   pagecolor="#ffffff"
   bordercolor="#000000"
   borderopacity="0.25"
   inkscape:showpageshadow="2"
   inkscape:pageopacity="0.0"
   inkscape:pagecheckerboard="0"
   inkscape:deskcolor="#d1d1d1"
   inkscape:zoom="4.7695312"
   inkscape:cx="128"
   inkscape:cy="77.68059"
   inkscape:window-width="2560"
   inkscape:window-height="1417"
   inkscape:window-x="-8"
   inkscape:window-y="-8"
   inkscape:window-maximized="1"
   inkscape:current-layer="g1" />&#10;&#10;<defs
   id="defs1">&#10;</defs>&#10;<g
   style="opacity:1;fill:none;fill-rule:nonzero;stroke:none;stroke-width:0;stroke-linecap:butt;stroke-linejoin:miter;stroke-miterlimit:10;stroke-dasharray:none"
   transform="matrix(2.5677187,0,0,2.5677187,12.309395,12.309375)"
   id="g1">&#10;	<path
   d="m 33.391633,93.674425 c -0.723627,0 -1.447254,-0.142779 -2.136268,-0.427254 l -10.648892,-4.41207 c -1.378028,-0.570032 -2.452111,-1.643033 -3.023225,-3.023225 -0.571113,-1.378028 -0.571113,-2.897753 0,-4.275781 1.315293,-3.175739 0.08112,-6.011838 -1.513235,-7.606197 -1.594359,-1.595441 -4.428294,-2.828527 -7.6072779,-1.513235 -1.3769465,0.572196 -2.8955898,0.571114 -4.2746997,0.0011 C 2.8089255,71.846631 1.7348423,70.77363 1.1648102,69.39452 L -3.246178,58.74671 c -1.1779221,-2.844752 0.1773914,-6.118921 3.02214349,-7.299007 3.17790181,-1.315292 4.30931271,-4.192494 4.30931271,-6.447744 0,-2.254168 -1.1314109,-5.132452 -4.30823105,-6.448826 C -1.6009811,37.98002 -2.6750643,36.907018 -3.246178,35.527908 c -0.5711137,-1.378028 -0.5711137,-2.896671 0,-4.2747 L 1.1648102,20.605399 c 1.1790038,-2.845834 4.4564178,-4.200066 7.2979249,-3.023226 3.1757389,1.315293 6.0118369,0.08113 7.6072779,-1.513235 1.594359,-1.594359 2.829609,-4.429376 1.513235,-7.6061961 C 16.404245,5.6169082 17.76064,2.3438208 20.606473,1.164817 l 10.64781,-4.4099066 c 1.378028,-0.5711137 2.896672,-0.5711137 4.275782,0 1.37911,0.5711138 2.453193,1.645197 3.023225,3.02430684 1.315292,3.17573846 4.193575,4.30714936 6.448826,4.30714936 2.25525,0 5.132452,-1.1314109 6.448826,-4.30823102 1.179003,-2.84583378 4.451009,-4.20222888 7.299006,-3.02322518 L 69.39884,1.164817 c 1.378028,0.5711138 2.452111,1.6441153 3.023225,3.0232252 0.570032,1.3780282 0.570032,2.8977532 -0.0011,4.2757814 -1.316374,3.1757384 -0.08004,6.0107554 1.513235,7.6051144 1.595441,1.59436 4.43154,2.828528 7.606197,1.513235 1.381273,-0.571113 2.898834,-0.570032 4.275781,0 1.37911,0.571114 2.453193,1.645197 3.024307,3.024307 l 4.409906,10.646728 c 1.177922,2.845834 -0.178473,6.120003 -3.023225,7.297925 -3.17682,1.316374 -4.308231,4.194658 -4.308231,6.448826 0,2.25525 1.131411,5.132452 4.308231,6.448826 h 0.0011 c 2.84367,1.180085 4.200065,4.453173 3.023225,7.297925 l -4.41207,10.648891 c -0.570032,1.376947 -1.644115,2.45103 -3.023225,3.023226 -1.376947,0.571113 -2.897753,0.571113 -4.276863,-0.0011 -3.173575,-1.316374 -6.010756,-0.08004 -7.605115,1.513235 -1.594359,1.595441 -2.828527,4.430458 -1.513235,7.606196 0.571114,1.378029 0.571114,2.896672 0.0011,4.275782 -0.571114,1.37911 -1.645197,2.452111 -3.024307,3.024307 l -10.64781,4.409906 c -2.844752,1.179004 -6.118921,-0.179554 -7.299006,-3.022143 -1.316374,-3.177902 -4.193576,-4.310395 -6.448826,-4.310395 -2.254169,0 -5.133534,1.132493 -6.448826,4.309313 -0.570032,1.376947 -1.644115,2.45103 -3.022144,3.023225 -0.691177,0.284475 -1.415886,0.427254 -2.139513,0.427254 z m -9.493684,-10.499623 9.030736,3.741444 c 2.276883,-4.644626 6.825242,-7.491541 12.072349,-7.491541 v 0 c 5.248189,0 9.795466,2.847997 12.071268,7.491541 l 9.029654,-3.741444 c -1.67332,-4.893406 -0.47052,-10.122126 3.240638,-13.832202 3.711157,-3.711157 8.939876,-4.915039 13.833283,-3.240637 l 3.741444,-9.029655 c -4.644626,-2.275801 -7.491542,-6.82416 -7.491542,-12.071267 0,-5.248189 2.846916,-9.796548 7.491542,-12.073431 L 83.175877,23.896874 C 78.283552,25.572357 73.052669,24.367394 69.342594,20.6584 65.630354,16.947242 64.428636,11.718523 66.101956,6.8251166 L 57.072302,3.0847543 c -2.27472,4.643544 -6.823079,7.4904597 -12.071268,7.4904597 -5.248189,0 -9.796547,-2.8469157 -12.073431,-7.4904597 L 23.896867,6.8251166 C 25.571269,11.718523 24.368469,16.947242 20.657311,20.6584 16.946154,24.369557 11.718516,25.573439 6.8240281,23.896874 L 3.0836659,32.92761 c 4.6446256,2.276883 7.4915411,6.825242 7.4915411,12.073431 0,5.248189 -2.8469155,9.795466 -7.4915411,12.071267 l 3.7403622,9.029655 c 4.8944879,-1.67332 10.1232069,-0.47052 13.8332829,3.239556 3.71224,3.711157 4.91504,8.939877 3.240638,13.833283 z M 87.737215,57.442234 c 0.0011,0 0.0022,0 0.0032,0.0011 -0.0011,-0.0011 -0.0022,-0.0011 -0.0032,-0.0011 z"
   style="opacity:1;fill:#3688ff;fill-opacity:1;fill-rule:nonzero;stroke:none;stroke-width:1.08165;stroke-linecap:butt;stroke-linejoin:miter;stroke-miterlimit:10;stroke-dasharray:none"
   stroke-linecap="round"
   id="path1"
   sodipodi:nodetypes="sccccccccccscccccccccscscccccccccccsccccccccccccsccsccsscccccsccsccsccsccsccccccc" />&#10;<path
   d="m 44.899489,65.341049 c -11.272875,0 -20.445245,-9.171385 -20.445245,-20.445246 0,-11.27386 9.17237,-20.445247 20.445245,-20.445247 11.27288,0 20.446231,9.171387 20.446231,20.445247 0,11.273861 -9.172371,20.445246 -20.446231,20.445246 z m 0,-34.988418 c -8.01832,0 -14.542185,6.524849 -14.542185,14.543172 0,8.019305 6.523865,14.543169 14.542185,14.543169 8.019308,0 14.543171,-6.523864 14.543171,-14.543169 0,-8.018323 -6.522878,-14.543172 -14.543171,-14.543172 z"
   style="fill:#5f6379;fill-opacity:1;fill-rule:nonzero;stroke:none;stroke-width:0.383158;stroke-linecap:butt;stroke-linejoin:miter;stroke-miterlimit:10;stroke-dasharray:none"
   id="path1-2" /></g>&#10;</svg>
