<?xml version="1.0" encoding="UTF-8" standalone="no"?>
<!-- Uploaded to: SVG Repo, www.svgrepo.com, Generator: SVG Repo Mixer Tools -->

<svg
   width="800px"
   height="800px"
   viewBox="0 0 1024 1024"
   class="icon"
   version="1.1"
   id="svg2"
   sodipodi:docname="volume-on-texture.svg"
   inkscape:version="1.3 (0e150ed6c4, 2023-07-21)"
   xmlns:inkscape="http://www.inkscape.org/namespaces/inkscape"
   xmlns:sodipodi="http://sodipodi.sourceforge.net/DTD/sodipodi-0.dtd"
   xmlns="http://www.w3.org/2000/svg"
   xmlns:svg="http://www.w3.org/2000/svg">
  <defs
     id="defs2" />
  <sodipodi:namedview
     id="namedview2"
     pagecolor="#ffffff"
     bordercolor="#000000"
     borderopacity="0.25"
     inkscape:showpageshadow="2"
     inkscape:pageopacity="0.0"
     inkscape:pagecheckerboard="0"
     inkscape:deskcolor="#d1d1d1"
     inkscape:zoom="0.53961086"
     inkscape:cx="102.8519"
     inkscape:cy="662.51446"
     inkscape:window-width="2560"
     inkscape:window-height="1417"
     inkscape:window-x="-8"
     inkscape:window-y="-8"
     inkscape:window-maximized="1"
     inkscape:current-layer="svg2" />
  <path
     d="m 581.70761,871.88433 c -17.26518,0 -34.45362,-4.60405 -50.1074,-13.81215 l -1.84162,-1.151 -84.63776,-57.55062 C 389.1049,761.31042 323.65067,741.12934 255.89442,741.12934 c -54.71145,0 -99.14052,-44.50581 -99.14052,-99.14052 V 382.01353 c 0,-54.71146 44.5058,-99.21726 99.14052,-99.21726 67.75625,0 133.13375,-20.10435 189.22641,-58.24122 l 86.47938,-58.62489 c 30.92387,-18.18599 68.0632,-18.41619 99.21726,-0.61388 31.15407,17.87906 49.80046,49.95394 49.80046,85.86552 v 521.63875 c 0,35.91157 -18.64639,67.98645 -49.80046,85.86551 -15.42356,8.82443 -32.22835,13.19827 -49.10986,13.19827 z m -16.11417,-69.82807 c 14.73296,8.28729 27.77777,2.60895 32.76548,-0.23021 5.06446,-2.9159 16.80478,-11.51012 16.80478,-29.0055 V 251.1818 c 0,-17.49538 -11.81706,-26.08961 -16.80478,-29.00551 -4.98771,-2.83916 -18.03252,-8.44075 -32.76548,-0.2302 l -83.64022,56.78327 c -66.91217,45.50335 -145.10428,69.52114 -225.98207,69.52114 -18.56966,0 -33.68629,15.11663 -33.68629,33.68629 v 259.9753 c 0,18.56966 15.11663,33.68629 33.68629,33.68629 80.95453,0 159.0699,24.09453 225.98207,69.52114 z"
     fill="#3688ff"
     id="path1"
     style="stroke-width:0.767341" />
  <path
     d="m 815.51656,746.11706 c -6.2922,0 -12.66113,-1.84161 -18.26272,-5.60159 -14.96315,-10.12891 -18.95333,-30.46346 -8.82443,-45.42662 11.89379,-17.57211 22.0227,-36.29525 30.23326,-55.63226 8.36402,-19.72067 14.73295,-40.36216 19.03006,-61.38731 4.45059,-21.5623 6.67588,-43.8152 6.67588,-65.99137 0,-22.2529 -2.22529,-44.42908 -6.67588,-65.99137 -4.29711,-21.02516 -10.74277,-41.66664 -19.03006,-61.38732 -8.21056,-19.33701 -18.33947,-38.06014 -30.23326,-55.63226 -10.1289,-14.96316 -6.13872,-35.29771 8.82443,-45.42662 14.96316,-10.1289 35.29771,-6.13872 45.42661,8.82443 14.19583,21.02516 26.39655,43.50827 36.21852,66.75871 10.05218,23.71085 17.72559,48.57272 22.86678,73.81825 5.29466,25.85941 7.98035,52.48616 7.98035,79.11291 0,26.62675 -2.68569,53.25351 -7.98035,79.11291 -5.14119,25.24553 -12.89133,50.03067 -22.86678,73.81825 -9.82197,23.17371 -22.02269,45.65681 -36.21852,66.75871 -6.2922,9.2081 -16.57457,14.27255 -27.16389,14.27255 z"
     fill="#5f6379"
     id="path2"
     style="stroke-width:0.767341" />
</svg>
