<?xml version="1.0" encoding="UTF-8" standalone="no"?>
<!-- Uploaded to: SVG Repo, www.svgrepo.com, Generator: SVG Repo Mixer Tools -->

<svg
   width="800px"
   height="800px"
   viewBox="0 0 1024 1024"
   class="icon"
   version="1.1"
   id="svg2"
   sodipodi:docname="volume-off-texture.svg"
   inkscape:version="1.3 (0e150ed6c4, 2023-07-21)"
   xmlns:inkscape="http://www.inkscape.org/namespaces/inkscape"
   xmlns:sodipodi="http://sodipodi.sourceforge.net/DTD/sodipodi-0.dtd"
   xmlns="http://www.w3.org/2000/svg"
   xmlns:svg="http://www.w3.org/2000/svg">
  <defs
     id="defs2" />
  <sodipodi:namedview
     id="namedview2"
     pagecolor="#ffffff"
     bordercolor="#000000"
     borderopacity="0.25"
     inkscape:showpageshadow="2"
     inkscape:pageopacity="0.0"
     inkscape:pagecheckerboard="0"
     inkscape:deskcolor="#d1d1d1"
     inkscape:zoom="0.53961086"
     inkscape:cx="206.63038"
     inkscape:cy="493.87442"
     inkscape:window-width="2560"
     inkscape:window-height="1417"
     inkscape:window-x="-8"
     inkscape:window-y="-8"
     inkscape:window-maximized="1"
     inkscape:current-layer="svg2" />
  <path
     d="m 572.49447,907.36553 c -17.83413,0 -35.51112,-5.22771 -51.22402,-15.09289 l -1.88554,-1.26477 -86.578,-63.15406 c -14.22017,-10.37109 -29.22597,-19.64606 -44.6246,-27.57194 -15.39864,-7.92587 -31.42578,-14.6713 -47.76718,-20.06764 -16.26285,-5.39634 -33.07563,-9.4436 -49.96698,-12.22609 -16.89136,-2.78249 -34.17553,-4.13157 -51.38115,-4.13157 -13.74877,0 -27.02616,-2.8668 -39.59647,-8.60043 -12.09892,-5.48065 -22.94081,-13.32221 -32.21141,-23.27172 -9.27061,-9.9495 -16.65567,-21.66968 -21.76236,-34.65463 -5.26381,-13.40653 -8.01357,-27.65625 -8.01357,-42.41187 V 369.16477 c 0,-14.75562 2.67119,-29.00534 8.01357,-42.49619 5.10669,-12.98495 12.41319,-24.62081 21.68379,-34.57031 9.34917,-10.03383 20.19106,-17.87539 32.28998,-23.35604 12.49174,-5.6493 25.76913,-8.60043 39.51791,-8.60043 17.12704,0 34.41122,-1.34908 51.38114,-4.13157 16.89136,-2.69817 33.70415,-6.82975 49.96698,-12.22609 16.26284,-5.39634 32.36855,-12.14176 47.68862,-20.06764 15.39862,-7.92588 30.40443,-17.20084 44.6246,-27.57194 l 88.62067,-64.41883 c 16.02715,-10.11814 33.93984,-15.34584 52.32392,-15.09289 17.12705,0.16864 34.17553,5.22771 49.18134,14.41835 15.08437,9.27496 27.73325,22.51286 36.61103,38.2803 9.42772,16.69493 14.45585,36.17235 14.45585,56.15568 V 368.8275 c 0,19.89901 -15.00581,36.00371 -33.54701,36.00371 -18.54121,0 -33.46845,-16.27334 -33.46845,-36.08803 V 225.40286 c 0,-6.91407 -1.57129,-13.32223 -4.79244,-18.8872 -2.98544,-5.31203 -7.30649,-9.86519 -12.49174,-12.98495 -5.10669,-3.11976 -10.92046,-4.89043 -16.65566,-4.97475 -5.89233,0 -11.47041,1.51772 -16.81278,4.72179 l -85.55668,62.39521 c -16.96991,12.39472 -34.88261,23.52467 -53.34525,32.96827 -18.38407,9.4436 -37.5538,17.45379 -56.95921,23.94626 -19.40542,6.40817 -39.51792,11.29859 -59.70898,14.587 -20.26962,3.28839 -40.93206,4.97475 -61.35882,4.97475 -4.71386,0 -9.19204,0.92749 -13.35596,2.8668 -4.16391,1.85499 -7.85644,4.55316 -10.99902,7.92588 -3.14257,3.37271 -5.65663,7.33565 -7.38505,11.8045 -1.80698,4.55316 -2.74976,9.35927 -2.74976,14.41835 V 654.8336 c 0,5.05908 0.86421,9.86519 2.67119,14.33403 1.72842,4.46885 4.24248,8.43179 7.38506,11.8045 3.14258,3.37271 6.83511,6.07089 10.99902,7.92588 4.24248,1.93931 8.72066,2.95112 13.43452,2.95112 20.50531,0 41.0892,1.68636 61.35882,4.97475 20.19106,3.28841 40.30356,8.17883 59.70898,14.587 19.48398,6.40815 38.65369,14.50266 57.03778,23.94626 18.38407,9.4436 36.37532,20.57356 53.34525,32.96827 l 85.55666,62.39521 c 5.34239,3.20407 10.99902,4.55316 16.81279,4.72179 5.73521,-0.0843 11.54898,-1.77068 16.73423,-4.97475 5.10669,-3.11976 9.42773,-7.67292 12.41318,-12.98494 3.14258,-5.6493 4.79243,-11.97315 4.79243,-18.88721 v -125.2963 c 0,-19.89901 15.0058,-36.00371 33.54702,-36.00371 18.54121,0 33.54701,16.1047 33.54701,36.00371 v 125.2963 c 0,19.98333 -5.02812,39.37644 -14.45586,56.15569 -8.79922,15.68312 -21.44809,28.92102 -36.53246,38.19598 -15.16294,9.27495 -32.13285,14.24971 -49.2599,14.41835 z"
     fill="#3688ff"
     id="path1"
     style="stroke-width:0.813903" />
  <path
     d="m 472.71763,745.81255 c -8.56351,0 -17.12704,-3.54135 -23.72645,-10.53973 -13.12026,-14.08108 -13.12026,-36.84689 0,-50.84365 L 775.81923,333.66696 c 13.12025,-14.08108 34.33265,-14.08108 47.37435,0 13.04169,14.08107 13.12026,36.8469 0,50.84365 L 496.36553,735.27282 c -6.44229,7.0827 -15.08437,10.53973 -23.6479,10.53973 z"
     fill="#5f6379"
     id="path2"
     style="stroke-width:0.813903" />
</svg>
